<svg xmlns="http://www.w3.org/2000/svg" version="1.1" xmlns:xlink="http://www.w3.org/1999/xlink" xmlns:svgjs="http://svgjs.dev/svgjs" width="1000" height="1000" viewBox="0 0 1000 1000"><rect width="1000" height="1000" fill="#000000"></rect><g transform="matrix(0.7,0,0,0.7,149.5757650364759,370.76860582576273)"><svg viewBox="0 0 396 146" data-background-color="#ffffff" preserveAspectRatio="xMidYMid meet" height="368" width="1000" xmlns="http://www.w3.org/2000/svg" xmlns:xlink="http://www.w3.org/1999/xlink"><defs></defs><g id="tight-bounds" transform="matrix(1,0,0,1,0.2399957793650458,0.24450135651647997)"><svg viewBox="0 0 395.5199999999999 145.51099621594403" height="145.51099621594403" width="395.5199999999999"><g><svg viewBox="0 0 395.5199999999999 145.51099621594403" height="145.51099621594403" width="395.5199999999999"><g><svg viewBox="0 0 395.5199999999999 145.51099621594403" height="145.51099621594403" width="395.5199999999999"><g><svg viewBox="0 0 395.5199999999999 145.51099621594403" height="145.51099621594403" width="395.5199999999999"><g><svg viewBox="0 0 395.5199999999999 78.48167832167832" height="78.48167832167832" width="395.5199999999999"><g transform="matrix(1,0,0,1,0,0)"><svg width="395.5199999999999" viewBox="0.5 -33.95000076293945 171.58999633789062 34.04999923706055" height="78.48167832167832" data-palette-color="#000000"><path d="M0.5-33.85L24.1-33.85 23.35-29.35 14.95-29.35 14.95 0 9.05 0 9.05-29.35 0.5-29.35 0.5-33.85ZM35.65 0L35.65-12.95 25.15-33.85 31.6-33.85 38.7-18.5 45.95-33.85 52.25-33.85 41.6-12.7 41.6 0 35.65 0ZM75.9-16.15L75.75-33.85 81.7-33.85 81.7 0.05 76.75 0.05 65.34-17.75Q64.4-19.2 63.27-21.03 62.15-22.85 61.15-24.4L61.15-24.4Q61.3-22.8 61.42-21.05 61.55-19.3 61.55-17.7L61.55-17.7 61.7 0 55.75 0 55.75-33.95 60.4-33.95 72.15-16.35Q73.15-14.9 74.17-13.28 75.2-11.65 76.2-10.15L76.2-10.15Q76.09-11.75 76-13.38 75.9-15 75.9-16.15L75.9-16.15ZM88.69 0L88.69-33.85Q89.04-33.85 90.19-33.88 91.34-33.9 92.79-33.9 94.24-33.9 95.79-33.93 97.34-33.95 98.49-33.95L98.49-33.95Q106.99-33.95 111.09-29.73 115.19-25.5 115.19-17.15L115.19-17.15Q115.19-8.8 110.99-4.35 106.79 0.1 97.84 0.1L97.84 0.1Q96.29 0.1 94.82 0.08 93.34 0.05 92.12 0.05 90.89 0.05 89.99 0.03 89.09 0 88.69 0L88.69 0ZM97.79-29.5Q96.64-29.5 95.87-29.48 95.09-29.45 94.64-29.45L94.64-29.45 94.64-4.4Q95.19-4.35 96.07-4.35 96.94-4.35 98.59-4.35L98.59-4.35Q103.84-4.35 106.29-7.43 108.74-10.5 108.74-16.6L108.74-16.6Q108.74-19.5 108.17-21.88 107.59-24.25 106.27-25.95 104.94-27.65 102.87-28.58 100.79-29.5 97.79-29.5L97.79-29.5ZM120.84 0L120.84-33.85 140.94-33.85 140.94-29.35 126.79-29.35 126.79-19.9 138.44-19.9 137.69-15.35 126.79-15.35 126.79-4.5 141.69-4.5 141.69 0 120.84 0ZM149.84 0L142.99 0 153.49-17.75 143.99-33.85 150.74-33.85 155.49-25.3Q155.89-24.6 156.44-23.53 156.99-22.45 157.54-21.3L157.54-21.3Q158.09-22.45 158.66-23.5 159.24-24.55 159.64-25.25L159.64-25.25 164.44-33.85 171.14-33.85 161.59-17.7 172.09 0 165.29 0 159.69-10Q159.29-10.7 158.69-11.83 158.09-12.95 157.54-14.1L157.54-14.1 155.44-10 149.84 0Z" opacity="1" transform="matrix(1,0,0,1,0,0)" fill="#ffffff" class="undefined-text-0" data-fill-palette-color="primary" id="text-0"></path></svg></g></svg></g><g transform="matrix(1,0,0,1,191.08999297663257,97.00931901314685)"><svg viewBox="0 0 204.43000702336735 48.5016772027972" height="48.5016772027972" width="204.43000702336735"><g transform="matrix(1,0,0,1,0,0)"><svg width="204.43000702336735" viewBox="5.25 -34 145.61000061035156 34.54999923706055" height="48.5016772027972" data-palette-color="#89939e"><path d="M8.15 0L5.25 0 5.25-30.88 8.15-30.88 8.15 0ZM38.65 0L35.82 0 35.82-13.98Q35.82-17.75 34.01-19.75 32.2-21.75 29.02-21.75L29.02-21.75Q26.7-21.75 25.01-20.48 23.32-19.2 22.44-16.9 21.55-14.6 21.55-11.53L21.55-11.53 20.27-11.53Q20.27-15.43 21.34-18.29 22.4-21.15 24.48-22.71 26.57-24.28 29.67-24.28L29.67-24.28Q32.42-24.28 34.44-23.05 36.45-21.83 37.55-19.51 38.65-17.2 38.65-13.98L38.65-13.98 38.65 0ZM21.55 0L18.65 0 18.65-23.73 21.1-23.73 21.55-17.88 21.55 0ZM68.14 0.55L68.14 0.55Q65.32 0.55 62.93-0.99 60.54-2.53 59.12-5.33 57.69-8.13 57.69-11.95L57.69-11.95Q57.69-15.78 59.11-18.54 60.52-21.3 62.86-22.79 65.19-24.28 67.97-24.28L67.97-24.28Q70.54-24.28 72.54-23.01 74.54-21.75 75.67-19.41 76.79-17.07 76.79-13.8L76.79-13.8 75.47-13.8Q75.47-16.43 74.46-18.19 73.44-19.95 71.82-20.85 70.19-21.75 68.34-21.75L68.34-21.75Q66.32-21.75 64.58-20.58 62.84-19.4 61.78-17.23 60.72-15.05 60.72-11.95L60.72-11.95Q60.72-8.83 61.77-6.6 62.82-4.38 64.57-3.2 66.32-2.02 68.37-2.02L68.37-2.02Q70.12-2.02 71.74-2.93 73.37-3.83 74.42-5.59 75.47-7.35 75.47-9.93L75.47-9.93 76.79-9.93Q76.79-6.63 75.66-4.28 74.52-1.93 72.56-0.69 70.59 0.55 68.14 0.55ZM78.34 0L75.89 0 75.47-5.4 75.47-34 78.34-34 78.34 0ZM105.89 0L103.37 0 102.99-4.93 102.99-15.43Q102.99-19 101.44-20.5 99.89-22 97.02-22L97.02-22Q95.42-22 94.04-21.54 92.67-21.08 91.84-20.06 91.02-19.05 91.02-17.4L91.02-17.4 87.72-17.4Q87.72-19.93 88.97-21.44 90.22-22.95 92.33-23.61 94.44-24.28 97.02-24.28L97.02-24.28Q99.57-24.28 101.57-23.39 103.57-22.5 104.73-20.54 105.89-18.57 105.89-15.38L105.89-15.38 105.89 0ZM95.12 0.55L95.12 0.55Q92.27 0.55 90.42-0.49 88.57-1.53 87.67-3.15 86.77-4.78 86.77-6.5L86.77-6.5Q86.77-9 87.98-10.5 89.19-12 91.23-12.68 93.27-13.35 95.69-13.35L95.69-13.35Q97.52-13.35 99.48-12.94 101.44-12.53 103.24-11.8L103.24-11.8 103.24-9.85Q101.69-10.53 99.67-10.93 97.64-11.33 95.99-11.33L95.99-11.33Q93.44-11.33 91.64-10.23 89.84-9.13 89.84-6.5L89.84-6.5Q89.84-4.53 91.18-3.15 92.52-1.78 95.49-1.78L95.49-1.78Q97.52-1.78 99.22-2.75 100.92-3.73 101.95-5.18 102.99-6.63 102.99-8.1L102.99-8.1 103.72-8.1Q103.72-5.83 102.65-3.85 101.59-1.88 99.65-0.66 97.72 0.55 95.12 0.55ZM122.46 0.55L122.46 0.55Q120.61 0.55 119.18-0.18 117.74-0.9 116.93-2.33 116.11-3.75 116.11-5.85L116.11-5.85 116.11-30.48 118.94-30.48 118.94-5.9Q118.94-1.85 122.69-1.85L122.69-1.85Q123.79-1.85 124.79-2.1 125.79-2.35 127.04-2.8L127.04-2.8 127.44-0.68Q126.21-0.13 124.99 0.21 123.76 0.55 122.46 0.55ZM126.96-21.63L112.04-21.63 112.04-23.73 126.96-23.73 126.96-21.63ZM150.86 0L148.34 0 147.96-4.93 147.96-15.43Q147.96-19 146.41-20.5 144.86-22 141.99-22L141.99-22Q140.39-22 139.01-21.54 137.64-21.08 136.81-20.06 135.99-19.05 135.99-17.4L135.99-17.4 132.69-17.4Q132.69-19.93 133.94-21.44 135.19-22.95 137.3-23.61 139.41-24.28 141.99-24.28L141.99-24.28Q144.54-24.28 146.54-23.39 148.54-22.5 149.7-20.54 150.86-18.57 150.86-15.38L150.86-15.38 150.86 0ZM140.09 0.55L140.09 0.55Q137.24 0.55 135.39-0.49 133.54-1.53 132.64-3.15 131.74-4.78 131.74-6.5L131.74-6.5Q131.74-9 132.95-10.5 134.16-12 136.2-12.68 138.24-13.35 140.66-13.35L140.66-13.35Q142.49-13.35 144.45-12.94 146.41-12.53 148.21-11.8L148.21-11.8 148.21-9.85Q146.66-10.53 144.64-10.93 142.61-11.33 140.96-11.33L140.96-11.33Q138.41-11.33 136.61-10.23 134.81-9.13 134.81-6.5L134.81-6.5Q134.81-4.53 136.15-3.15 137.49-1.78 140.46-1.78L140.46-1.78Q142.49-1.78 144.19-2.75 145.89-3.73 146.92-5.18 147.96-6.63 147.96-8.1L147.96-8.1 148.69-8.1Q148.69-5.83 147.62-3.85 146.56-1.88 144.62-0.66 142.69 0.55 140.09 0.55Z" opacity="1" transform="matrix(1,0,0,1,0,0)" fill="#ffffff" class="undefined-text-1" data-fill-palette-color="secondary" id="text-1"></path></svg></g></svg></g></svg></g></svg></g></svg></g></svg><rect width="395.5199999999999" height="145.51099621594403" fill="none" stroke="none" visibility="hidden"></rect></g></svg></g></svg>